<svg
	xmlns="http://www.w3.org/2000/svg"
	xml:space="preserve"
	width="758.768"
	height="69.666"
	viewBox="0 0 200.757 18.432"
	class="fill-base-content"
>
	<g style="display:inline">
		<path
			d="M17.496 29.909v.294c1.066 0 3.13 1.61 2.313 3.856l-3.175 8.05-4.24-9.865c-.409-.861-.613-1.995.634-1.995v-.34H6.973v.294c.613 0 1.248 1.542 1.248 1.542l6.894 15.467s5.238-13.562 5.397-13.947c.522-1.247 1.678-3.084 2.948-3.062v-.294z"
			aria-label="V"
			style="font-weight:401;font-size:22.6779px;font-family:&quot;Exodus Display&quot;;-inkscape-font-specification:&quot;Exodus Display, weight=401&quot;;stroke-width:.708685"
			transform="matrix(.96827 0 0 1.03277 -6.752 -30.326)"
		/>
		<path
			d="M114.3 39.869c1.149-.51 2.002-1.248 2.314-2.118.64-1.903-1.592-3.741-4.513-4.07-2.922-.311-6.204.903-6.844 2.807-.476 1.378.558 2.724 2.281 3.479-1.116.509-1.986 1.247-2.281 2.117-.657 1.887 1.575 3.742 4.497 4.054 2.905.328 6.203-.903 6.86-2.79.46-1.379-.591-2.725-2.314-3.48zm-6.171-3.102c.624-1.79 1.805-3.151 3.89-2.922 2.084.23 2.346 1.74 1.74 3.545-.263.755-.64 1.445-1.133 1.97-.18-.033-.345-.066-.525-.082-1.297-.132-2.66.016-3.824.41-.591-.673-.542-1.756-.148-2.921zm4.316 2.757c-.673.624-1.542.952-2.642.837-.164-.017-.295-.05-.427-.066.657-.623 1.526-.968 2.642-.837.148.017.296.033.427.066zm1.313 3.463c-.624 1.789-1.87 3.216-3.955 2.987-2.068-.23-2.281-1.822-1.674-3.61.263-.74.607-1.396 1.067-1.888.18.033.36.049.558.082a9.408 9.408 0 0 0 3.84-.427c.59.657.558 1.69.164 2.856zm12.736-9.06h-9.437v.214c.345 0 1.149.033 1.149 1.181v9.207c0 .952-.542 1.182-1.15 1.182v.213h4.892v-.213c-.624 0-1.15-.213-1.15-1.132v-2.101h1.412c1.362.05 2.577.886 2.577 1.723h.262v-3.807h-.262c0 .886-1.133 1.805-2.544 1.854h-1.444v-4.283h1.411c1.362.049 2.577.886 2.577 1.74h.262v-3.808h-.262c0 .87-1.133 1.789-2.544 1.838h-1.444v-2.462c0-.656.377-1.132 1.23-1.132h.772c1.543 0 3.43 2.051 3.807 3.282h.247z"
			aria-label="of"
			style="font-weight:403;font-size:16.4117px;font-family:&quot;Exodus Display&quot;;-inkscape-font-specification:&quot;Exodus Display, weight=403&quot;;font-feature-settings:&quot;ss03&quot;;stroke-width:.512865"
			transform="matrix(.95686 0 0 1.04509 -6.752 -30.326)"
		/>
		<path
			d="M142.391 29.798v.294c1.085 0 3.12 1.606 2.306 3.844l-3.165 8.027-4.952-11.532-4.816-.633c.543.204.769.475 1.017 1.018l7.236 16.234s5.246-13.52 5.404-13.905c.52-1.244 1.65-3.075 2.94-3.053v-.294zm17.184 14.697-5.313-13.589-4.952-1.13c.407.203.746.475.995.995l1.108 2.532c.068.226-3.573 9.293-3.731 9.677-.52 1.244-1.65 3.075-2.94 3.053v.294h5.97v-.294c-1.086 0-3.143-1.605-2.33-3.844l.611-1.605h5.246l1.334 3.414c.498 1.266.023 2.035-.746 2.035v.294h6.014v-.294c-.723 0-1.266-1.538-1.266-1.538zm-10.469-4.25 2.51-6.422 2.51 6.422zm27.925 4.25-5.314-13.589-4.952-1.13c.407.203.747.475.995.995l1.108 2.532c.068.226-3.572 9.293-3.73 9.677-.52 1.244-1.651 3.075-2.94 3.053v.294h5.97v-.294c-1.086 0-3.144-1.605-2.33-3.844l.61-1.605h5.247l1.334 3.414c.497 1.266.022 2.035-.747 2.035v.294h6.015v-.294c-.724 0-1.266-1.538-1.266-1.538zm-10.47-4.25 2.51-6.422 2.51 6.422zm21.504-1.922c2.351-.317 5.178-1.515 5.178-4.296 0-4.138-4.523-4.229-6.445-4.229h-7.145v.294c.882 0 1.674.181 1.674 1.606v12.91l4.047 1.719c-.407-.407-.52-.746-.52-1.357v-6.557h1.311c2.714 0 1.9 7.914 4.455 7.914h5.132v-.317c-4.296 0-1.56-7.823-7.687-7.687zm-1.402-.204h-1.81v-6.444c0-1.402.702-1.605 1.81-1.605 1.47 0 2.555 1.085 2.555 3.911.022 3.528-1.719 4.138-2.555 4.138zm22.045-8.32v.316c1.628 0 3.03 1.809 3.03 4.409v6.738l-9.022-11.464h-5.607v.385c1.424.045 1.877.836 3.03 2.329v9.474c0 2.6-1.673 4.024-3.03 4.024v.317h6.263v-.317c-1.289 0-2.94-1.492-2.94-4.047v-9.09l10.582 13.454h.995v-11.78c0-2.555 1.538-4.432 2.962-4.432v-.317z"
			aria-label="Vaarn"
			style="font-weight:405;font-size:22.6107px;font-family:&quot;Exodus Display&quot;;-inkscape-font-specification:&quot;Exodus Display, weight=405&quot;;font-feature-settings:&quot;ss03&quot;;stroke-width:.706581"
			transform="matrix(.96529 0 0 1.03596 -6.752 -30.326)"
		/>
		<path
			d="m34.437 44.808-5.822-14.865s-1.781 1.599-3.768 1.713c0 0 .89.594 1.347 1.85l2.74 7.01h-5.388c-.594 1.484-1.05 2.625-1.119 2.762-.525 1.256-1.667 3.106-2.968 3.083v.297h6.028v-.297c-1.096 0-3.174-1.621-2.352-3.882l.616-1.621h5.298l1.347 3.448c.502 1.278.023 2.055-.754 2.055v.297h6.074v-.297c-.73 0-1.279-1.553-1.279-1.553z"
			aria-label="A"
			style="font-weight:401;font-size:22.8335px;font-family:&quot;Exodus Display&quot;;-inkscape-font-specification:&quot;Exodus Display, weight=401&quot;;stroke-width:.271984"
			transform="matrix(.97279 0 0 1.02797 -6.752 -30.326)"
		/>
		<path
			d="M66.372 41.632c-.837 3.123-4.255 4.82-6.744 4.82-.68 0-1.404-.452-1.404-1.629V32.126c0-1.403.634-1.63 1.607-1.63v-.294h-6.767v.294c.883 0 1.607.204 1.607 1.63v12.697c0 1.403-.724 1.63-1.607 1.63v.294H66.35l.498-5.115zm13.58-11.43H65.218l-.407 5.296h.498c.249-1.539 2.535-5.002 5.002-5.002h.497v14.327c0 1.403-.837 1.63-1.72 1.63v.294h7.017v-.294c-.883 0-1.72-.227-1.72-1.63V30.496h.271c2.331 0 5.092 3.26 5.228 5.002h.476z"
			aria-label="lt"
			style="font-weight:401;font-size:22.633px;font-family:&quot;Exodus Display&quot;;-inkscape-font-specification:&quot;Exodus Display, weight=401&quot;;stroke-width:.269595"
			transform="matrix(.97465 0 0 1.026 -6.752 -30.326)"
		/>
		<path
			d="M46.102 29.782v.316c1.673 0 3.03 1.808 3.03 4.386v4.973c0 2.825-.227 5.696-4.545 5.696-2.441 0-3.187-2.283-3.187-4.589V31.5l-4.114-1.718c.407.384.52.723.52 1.356v9.155c0 4.001 1.22 6.285 6.216 6.285 3.956 0 5.403-1.809 5.403-7.121v-4.95c0-2.533 1.515-4.409 2.961-4.409v-.316z"
			aria-label="U"
			style="font-weight:405;font-size:22.6057px;font-family:&quot;Exodus Display&quot;;-inkscape-font-specification:&quot;Exodus Display, weight=405&quot;;stroke-width:.351701"
			transform="matrix(.96608 0 0 1.03511 -6.752 -30.326)"
		/>
		<path
			d="M88.687 36.064c.888.5 1.958 1.07 2.96 1.708 1.23.82 1.982 1.572 2.415 2.255l3.007.729c0-1.845-.57-3.872-4.692-6.013-4.123-2.142-2.984-4.602-2.142-5.148 1.732-1.07 5.99 1.526 5.831 4.168h.251l.501-3.644s-2.733-1.48-6.332-1.002c-2.71.364-3.667 1.73-3.85 3.074-.273 1.914.684 3.075 2.05 3.873zm3.507 3.644c-.934-.888-2.232-1.617-3.37-2.187-1.663-.842-2.46-1.662-2.78-2.437l-2.824-.729c-.068.16-.114.365-.137.593-.273 1.936.684 3.074 2.05 3.872.889.5 1.96 1.093 2.961 1.73 3.6 2.347 3.007 4.328 2.346 5.035-1.435 1.548-6.582-1.527-6.468-3.85h-.25l-.502 3.69s3.12 1.07 6.332.888c4.829-.296 4.601-4.669 2.642-6.605z"
			aria-label="S"
			style="font-weight:407;font-size:22.7774px;font-family:&quot;Exodus Display&quot;;-inkscape-font-specification:&quot;Exodus Display, weight=407&quot;;stroke-width:.354372"
			transform="matrix(.95697 0 0 1.04497 -6.752 -30.326)"
		/>
	</g>
</svg>
